<svg width="102" height="45" viewBox="0 0 102 45" fill="none" xmlns="http://www.w3.org/2000/svg">
<path d="M9.88672 4.9375L15.4648 18.8594L21.043 4.9375H23.9609V22H21.7109V15.3555L21.9219 8.18359L16.3203 22H14.5977L9.00781 8.21875L9.23047 15.3555V22H6.98047V4.9375H9.88672ZM31.7422 18.8242L34.6953 9.32031H37.0156L31.918 23.957C31.1289 26.0664 29.875 27.1211 28.1562 27.1211L27.7461 27.0859L26.9375 26.9336V25.1758L27.5234 25.2227C28.2578 25.2227 28.8281 25.0742 29.2344 24.7773C29.6484 24.4805 29.9883 23.9375 30.2539 23.1484L30.7344 21.8594L26.2109 9.32031H28.5781L31.7422 18.8242ZM51.8516 16.5859C51.6406 18.3906 50.9727 19.7852 49.8477 20.7695C48.7305 21.7461 47.2422 22.2344 45.3828 22.2344C43.3672 22.2344 41.75 21.5117 40.5312 20.0664C39.3203 18.6211 38.7148 16.6875 38.7148 14.2656V12.625C38.7148 11.0391 38.9961 9.64453 39.5586 8.44141C40.1289 7.23828 40.9336 6.31641 41.9727 5.67578C43.0117 5.02734 44.2148 4.70312 45.582 4.70312C47.3945 4.70312 48.8477 5.21094 49.9414 6.22656C51.0352 7.23438 51.6719 8.63281 51.8516 10.4219H49.5898C49.3945 9.0625 48.9688 8.07812 48.3125 7.46875C47.6641 6.85938 46.7539 6.55469 45.582 6.55469C44.1445 6.55469 43.0156 7.08594 42.1953 8.14844C41.3828 9.21094 40.9766 10.7227 40.9766 12.6836V14.3359C40.9766 16.1875 41.3633 17.6602 42.1367 18.7539C42.9102 19.8477 43.9922 20.3945 45.3828 20.3945C46.6328 20.3945 47.5898 20.1133 48.2539 19.5508C48.9258 18.9805 49.3711 17.9922 49.5898 16.5859H51.8516ZM56.9492 22H54.7812V4H56.9492V22ZM62.7852 22H60.6172V9.32031H62.7852V22ZM60.4414 5.95703C60.4414 5.60547 60.5469 5.30859 60.7578 5.06641C60.9766 4.82422 61.2969 4.70312 61.7188 4.70312C62.1406 4.70312 62.4609 4.82422 62.6797 5.06641C62.8984 5.30859 63.0078 5.60547 63.0078 5.95703C63.0078 6.30859 62.8984 6.60156 62.6797 6.83594C62.4609 7.07031 62.1406 7.1875 61.7188 7.1875C61.2969 7.1875 60.9766 7.07031 60.7578 6.83594C60.5469 6.60156 60.4414 6.30859 60.4414 5.95703ZM68.3164 9.32031L68.3867 10.9141C69.3555 9.69531 70.6211 9.08594 72.1836 9.08594C74.8633 9.08594 76.2148 10.5977 76.2383 13.6211V22H74.0703V13.6094C74.0625 12.6953 73.8516 12.0195 73.4375 11.582C73.0312 11.1445 72.3945 10.9258 71.5273 10.9258C70.8242 10.9258 70.207 11.1133 69.6758 11.4883C69.1445 11.8633 68.7305 12.3555 68.4336 12.9648V22H66.2656V9.32031H68.3164ZM81.8633 22H79.6953V9.32031H81.8633V22ZM79.5195 5.95703C79.5195 5.60547 79.625 5.30859 79.8359 5.06641C80.0547 4.82422 80.375 4.70312 80.7969 4.70312C81.2188 4.70312 81.5391 4.82422 81.7578 5.06641C81.9766 5.30859 82.0859 5.60547 82.0859 5.95703C82.0859 6.30859 81.9766 6.60156 81.7578 6.83594C81.5391 7.07031 81.2188 7.1875 80.7969 7.1875C80.375 7.1875 80.0547 7.07031 79.8359 6.83594C79.625 6.60156 79.5195 6.30859 79.5195 5.95703ZM90.4297 20.4648C91.2031 20.4648 91.8789 20.2305 92.457 19.7617C93.0352 19.293 93.3555 18.707 93.418 18.0039H95.4688C95.4297 18.7305 95.1797 19.4219 94.7188 20.0781C94.2578 20.7344 93.6406 21.2578 92.8672 21.6484C92.1016 22.0391 91.2891 22.2344 90.4297 22.2344C88.7031 22.2344 87.3281 21.6602 86.3047 20.5117C85.2891 19.3555 84.7812 17.7773 84.7812 15.7773V15.4141C84.7812 14.1797 85.0078 13.082 85.4609 12.1211C85.9141 11.1602 86.5625 10.4141 87.4062 9.88281C88.2578 9.35156 89.2617 9.08594 90.418 9.08594C91.8398 9.08594 93.0195 9.51172 93.957 10.3633C94.9023 11.2148 95.4062 12.3203 95.4688 13.6797H93.418C93.3555 12.8594 93.043 12.1875 92.4805 11.6641C91.9258 11.1328 91.2383 10.8672 90.418 10.8672C89.3164 10.8672 88.4609 11.2656 87.8516 12.0625C87.25 12.8516 86.9492 13.9961 86.9492 15.4961V15.9062C86.9492 17.3672 87.25 18.4922 87.8516 19.2812C88.4531 20.0703 89.3125 20.4648 90.4297 20.4648Z" fill="#1ABBB6"/>
<path d="M15.9902 42V33.4688H18.3984C19.1406 33.4688 19.7969 33.6328 20.3672 33.9609C20.9375 34.2891 21.377 34.7559 21.6855 35.3613C21.998 35.9668 22.1562 36.6621 22.1602 37.4473V37.9922C22.1602 38.7969 22.0039 39.502 21.6914 40.1074C21.3828 40.7129 20.9395 41.1777 20.3613 41.502C19.7871 41.8262 19.1172 41.9922 18.3516 42H15.9902ZM17.1152 34.3945V41.0801H18.2988C19.166 41.0801 19.8398 40.8105 20.3203 40.2715C20.8047 39.7324 21.0469 38.9648 21.0469 37.9688V37.4707C21.0469 36.502 20.8184 35.75 20.3613 35.2148C19.9082 34.6758 19.2637 34.4023 18.4277 34.3945H17.1152ZM26.3262 42.1172C25.4668 42.1172 24.7676 41.8359 24.2285 41.2734C23.6895 40.707 23.4199 39.9512 23.4199 39.0059V38.8066C23.4199 38.1777 23.5391 37.6172 23.7773 37.125C24.0195 36.6289 24.3555 36.2422 24.7852 35.9648C25.2188 35.6836 25.6875 35.543 26.1914 35.543C27.0156 35.543 27.6562 35.8145 28.1133 36.3574C28.5703 36.9004 28.7988 37.6777 28.7988 38.6895V39.1406H24.5039C24.5195 39.7656 24.7012 40.2715 25.0488 40.6582C25.4004 41.041 25.8457 41.2324 26.3848 41.2324C26.7676 41.2324 27.0918 41.1543 27.3574 40.998C27.623 40.8418 27.8555 40.6348 28.0547 40.377L28.7168 40.8926C28.1855 41.709 27.3887 42.1172 26.3262 42.1172ZM26.1914 36.4336C25.7539 36.4336 25.3867 36.5938 25.0898 36.9141C24.793 37.2305 24.6094 37.6758 24.5391 38.25H27.7148V38.168C27.6836 37.6172 27.5352 37.1914 27.2695 36.8906C27.0039 36.5859 26.6445 36.4336 26.1914 36.4336ZM31.084 35.6602L31.1191 36.457C31.6035 35.8477 32.2363 35.543 33.0176 35.543C34.3574 35.543 35.0332 36.2988 35.0449 37.8105V42H33.9609V37.8047C33.957 37.3477 33.8516 37.0098 33.6445 36.791C33.4414 36.5723 33.123 36.4629 32.6895 36.4629C32.3379 36.4629 32.0293 36.5566 31.7637 36.7441C31.498 36.9316 31.291 37.1777 31.1426 37.4824V42H30.0586V35.6602H31.084ZM38.1504 34.125V35.6602H39.334V36.498H38.1504V40.4297C38.1504 40.6836 38.2031 40.875 38.3086 41.0039C38.4141 41.1289 38.5938 41.1914 38.8477 41.1914C38.9727 41.1914 39.1445 41.168 39.3633 41.1211V42C39.0781 42.0781 38.8008 42.1172 38.5312 42.1172C38.0469 42.1172 37.6816 41.9707 37.4355 41.6777C37.1895 41.3848 37.0664 40.9688 37.0664 40.4297V36.498H35.9121V35.6602H37.0664V34.125H38.1504ZM44.5195 42C44.457 41.875 44.4062 41.6523 44.3672 41.332C43.8633 41.8555 43.2617 42.1172 42.5625 42.1172C41.9375 42.1172 41.4238 41.9414 41.0215 41.5898C40.623 41.2344 40.4238 40.7852 40.4238 40.2422C40.4238 39.582 40.6738 39.0703 41.1738 38.707C41.6777 38.3398 42.3848 38.1562 43.2949 38.1562H44.3496V37.6582C44.3496 37.2793 44.2363 36.9785 44.0098 36.7559C43.7832 36.5293 43.4492 36.416 43.0078 36.416C42.6211 36.416 42.2969 36.5137 42.0352 36.709C41.7734 36.9043 41.6426 37.1406 41.6426 37.418H40.5527C40.5527 37.1016 40.6641 36.7969 40.8867 36.5039C41.1133 36.207 41.418 35.9727 41.8008 35.8008C42.1875 35.6289 42.6113 35.543 43.0723 35.543C43.8027 35.543 44.375 35.7266 44.7891 36.0938C45.2031 36.457 45.418 36.959 45.4336 37.5996V40.5176C45.4336 41.0996 45.5078 41.5625 45.6562 41.9062V42H44.5195ZM42.7207 41.1738C43.0605 41.1738 43.3828 41.0859 43.6875 40.9102C43.9922 40.7344 44.2129 40.5059 44.3496 40.2246V38.9238H43.5C42.1719 38.9238 41.5078 39.3125 41.5078 40.0898C41.5078 40.4297 41.6211 40.6953 41.8477 40.8867C42.0742 41.0781 42.3652 41.1738 42.7207 41.1738ZM48.3105 42H47.2266V33H48.3105V42ZM55.7109 38.1973C54.7461 37.9199 54.043 37.5801 53.6016 37.1777C53.1641 36.7715 52.9453 36.2715 52.9453 35.6777C52.9453 35.0059 53.2129 34.4512 53.748 34.0137C54.2871 33.5723 54.9863 33.3516 55.8457 33.3516C56.4316 33.3516 56.9531 33.4648 57.4102 33.6914C57.8711 33.918 58.2266 34.2305 58.4766 34.6289C58.7305 35.0273 58.8574 35.4629 58.8574 35.9355H57.7266C57.7266 35.4199 57.5625 35.0156 57.2344 34.7227C56.9062 34.4258 56.4434 34.2773 55.8457 34.2773C55.291 34.2773 54.8574 34.4004 54.5449 34.6465C54.2363 34.8887 54.082 35.2266 54.082 35.6602C54.082 36.0078 54.2285 36.3027 54.5215 36.5449C54.8184 36.7832 55.3203 37.002 56.0273 37.2012C56.7383 37.4004 57.293 37.6211 57.6914 37.8633C58.0938 38.1016 58.3906 38.3809 58.582 38.7012C58.7773 39.0215 58.875 39.3984 58.875 39.832C58.875 40.5234 58.6055 41.0781 58.0664 41.4961C57.5273 41.9102 56.8066 42.1172 55.9043 42.1172C55.3184 42.1172 54.7715 42.0059 54.2637 41.7832C53.7559 41.5566 53.3633 41.248 53.0859 40.8574C52.8125 40.4668 52.6758 40.0234 52.6758 39.5273H53.8066C53.8066 40.043 53.9961 40.4512 54.375 40.752C54.7578 41.0488 55.2676 41.1973 55.9043 41.1973C56.498 41.1973 56.9531 41.0762 57.2695 40.834C57.5859 40.5918 57.7441 40.2617 57.7441 39.8438C57.7441 39.4258 57.5977 39.1035 57.3047 38.877C57.0117 38.6465 56.4805 38.4199 55.7109 38.1973ZM61.623 34.125V35.6602H62.8066V36.498H61.623V40.4297C61.623 40.6836 61.6758 40.875 61.7812 41.0039C61.8867 41.1289 62.0664 41.1914 62.3203 41.1914C62.4453 41.1914 62.6172 41.168 62.8359 41.1211V42C62.5508 42.0781 62.2734 42.1172 62.0039 42.1172C61.5195 42.1172 61.1543 41.9707 60.9082 41.6777C60.6621 41.3848 60.5391 40.9688 60.5391 40.4297V36.498H59.3848V35.6602H60.5391V34.125H61.623ZM67.9922 41.373C67.5703 41.8691 66.9512 42.1172 66.1348 42.1172C65.459 42.1172 64.9434 41.9219 64.5879 41.5312C64.2363 41.1367 64.0586 40.5547 64.0547 39.7852V35.6602H65.1387V39.7559C65.1387 40.7168 65.5293 41.1973 66.3105 41.1973C67.1387 41.1973 67.6895 40.8887 67.9629 40.2715V35.6602H69.0469V42H68.0156L67.9922 41.373ZM70.4355 38.7773C70.4355 37.8047 70.666 37.0234 71.127 36.4336C71.5879 35.8398 72.1914 35.543 72.9375 35.543C73.6797 35.543 74.2676 35.7969 74.7012 36.3047V33H75.7852V42H74.7891L74.7363 41.3203C74.3027 41.8516 73.6992 42.1172 72.9258 42.1172C72.1914 42.1172 71.5918 41.8164 71.127 41.2148C70.666 40.6133 70.4355 39.8281 70.4355 38.8594V38.7773ZM71.5195 38.9004C71.5195 39.6191 71.668 40.1816 71.9648 40.5879C72.2617 40.9941 72.6719 41.1973 73.1953 41.1973C73.8828 41.1973 74.3848 40.8887 74.7012 40.2715V37.3594C74.377 36.7617 73.8789 36.4629 73.207 36.4629C72.6758 36.4629 72.2617 36.668 71.9648 37.0781C71.668 37.4883 71.5195 38.0957 71.5195 38.9004ZM78.6504 42H77.5664V35.6602H78.6504V42ZM77.4785 33.9785C77.4785 33.8027 77.5312 33.6543 77.6367 33.5332C77.7461 33.4121 77.9062 33.3516 78.1172 33.3516C78.3281 33.3516 78.4883 33.4121 78.5977 33.5332C78.707 33.6543 78.7617 33.8027 78.7617 33.9785C78.7617 34.1543 78.707 34.3008 78.5977 34.418C78.4883 34.5352 78.3281 34.5938 78.1172 34.5938C77.9062 34.5938 77.7461 34.5352 77.6367 34.418C77.5312 34.3008 77.4785 34.1543 77.4785 33.9785ZM80.1035 38.7715C80.1035 38.1504 80.2246 37.5918 80.4668 37.0957C80.7129 36.5996 81.0527 36.2168 81.4863 35.9473C81.9238 35.6777 82.4219 35.543 82.9805 35.543C83.8438 35.543 84.541 35.8418 85.0723 36.4395C85.6074 37.0371 85.875 37.832 85.875 38.8242V38.9004C85.875 39.5176 85.7559 40.0723 85.5176 40.5645C85.2832 41.0527 84.9453 41.4336 84.5039 41.707C84.0664 41.9805 83.5625 42.1172 82.9922 42.1172C82.1328 42.1172 81.4355 41.8184 80.9004 41.2207C80.3691 40.623 80.1035 39.832 80.1035 38.8477V38.7715ZM81.1934 38.9004C81.1934 39.6035 81.3555 40.168 81.6797 40.5938C82.0078 41.0195 82.4453 41.2324 82.9922 41.2324C83.543 41.2324 83.9805 41.0176 84.3047 40.5879C84.6289 40.1543 84.791 39.5488 84.791 38.7715C84.791 38.0762 84.625 37.5137 84.293 37.084C83.9648 36.6504 83.5273 36.4336 82.9805 36.4336C82.4453 36.4336 82.0137 36.6465 81.6855 37.0723C81.3574 37.498 81.1934 38.1074 81.1934 38.9004Z" fill="#36CB4F"/>
<path d="M0 31H101.309" stroke="#CCCCCC" stroke-width="2"/>
</svg>
