<svg width="102" height="48" viewBox="0 0 102 48" fill="none" xmlns="http://www.w3.org/2000/svg">
<path d="M10.8867 4.9375L16.4648 18.8594L22.043 4.9375H24.9609V22H22.7109V15.3555L22.9219 8.18359L17.3203 22H15.5977L10.0078 8.21875L10.2305 15.3555V22H7.98047V4.9375H10.8867ZM32.7422 18.8242L35.6953 9.32031H38.0156L32.918 23.957C32.1289 26.0664 30.875 27.1211 29.1562 27.1211L28.7461 27.0859L27.9375 26.9336V25.1758L28.5234 25.2227C29.2578 25.2227 29.8281 25.0742 30.2344 24.7773C30.6484 24.4805 30.9883 23.9375 31.2539 23.1484L31.7344 21.8594L27.2109 9.32031H29.5781L32.7422 18.8242ZM52.8516 16.5859C52.6406 18.3906 51.9727 19.7852 50.8477 20.7695C49.7305 21.7461 48.2422 22.2344 46.3828 22.2344C44.3672 22.2344 42.75 21.5117 41.5312 20.0664C40.3203 18.6211 39.7148 16.6875 39.7148 14.2656V12.625C39.7148 11.0391 39.9961 9.64453 40.5586 8.44141C41.1289 7.23828 41.9336 6.31641 42.9727 5.67578C44.0117 5.02734 45.2148 4.70312 46.582 4.70312C48.3945 4.70312 49.8477 5.21094 50.9414 6.22656C52.0352 7.23438 52.6719 8.63281 52.8516 10.4219H50.5898C50.3945 9.0625 49.9688 8.07812 49.3125 7.46875C48.6641 6.85938 47.7539 6.55469 46.582 6.55469C45.1445 6.55469 44.0156 7.08594 43.1953 8.14844C42.3828 9.21094 41.9766 10.7227 41.9766 12.6836V14.3359C41.9766 16.1875 42.3633 17.6602 43.1367 18.7539C43.9102 19.8477 44.9922 20.3945 46.3828 20.3945C47.6328 20.3945 48.5898 20.1133 49.2539 19.5508C49.9258 18.9805 50.3711 17.9922 50.5898 16.5859H52.8516ZM57.9492 22H55.7812V4H57.9492V22ZM63.7852 22H61.6172V9.32031H63.7852V22ZM61.4414 5.95703C61.4414 5.60547 61.5469 5.30859 61.7578 5.06641C61.9766 4.82422 62.2969 4.70312 62.7188 4.70312C63.1406 4.70312 63.4609 4.82422 63.6797 5.06641C63.8984 5.30859 64.0078 5.60547 64.0078 5.95703C64.0078 6.30859 63.8984 6.60156 63.6797 6.83594C63.4609 7.07031 63.1406 7.1875 62.7188 7.1875C62.2969 7.1875 61.9766 7.07031 61.7578 6.83594C61.5469 6.60156 61.4414 6.30859 61.4414 5.95703ZM69.3164 9.32031L69.3867 10.9141C70.3555 9.69531 71.6211 9.08594 73.1836 9.08594C75.8633 9.08594 77.2148 10.5977 77.2383 13.6211V22H75.0703V13.6094C75.0625 12.6953 74.8516 12.0195 74.4375 11.582C74.0312 11.1445 73.3945 10.9258 72.5273 10.9258C71.8242 10.9258 71.207 11.1133 70.6758 11.4883C70.1445 11.8633 69.7305 12.3555 69.4336 12.9648V22H67.2656V9.32031H69.3164ZM82.8633 22H80.6953V9.32031H82.8633V22ZM80.5195 5.95703C80.5195 5.60547 80.625 5.30859 80.8359 5.06641C81.0547 4.82422 81.375 4.70312 81.7969 4.70312C82.2188 4.70312 82.5391 4.82422 82.7578 5.06641C82.9766 5.30859 83.0859 5.60547 83.0859 5.95703C83.0859 6.30859 82.9766 6.60156 82.7578 6.83594C82.5391 7.07031 82.2188 7.1875 81.7969 7.1875C81.375 7.1875 81.0547 7.07031 80.8359 6.83594C80.625 6.60156 80.5195 6.30859 80.5195 5.95703ZM91.4297 20.4648C92.2031 20.4648 92.8789 20.2305 93.457 19.7617C94.0352 19.293 94.3555 18.707 94.418 18.0039H96.4688C96.4297 18.7305 96.1797 19.4219 95.7188 20.0781C95.2578 20.7344 94.6406 21.2578 93.8672 21.6484C93.1016 22.0391 92.2891 22.2344 91.4297 22.2344C89.7031 22.2344 88.3281 21.6602 87.3047 20.5117C86.2891 19.3555 85.7812 17.7773 85.7812 15.7773V15.4141C85.7812 14.1797 86.0078 13.082 86.4609 12.1211C86.9141 11.1602 87.5625 10.4141 88.4062 9.88281C89.2578 9.35156 90.2617 9.08594 91.418 9.08594C92.8398 9.08594 94.0195 9.51172 94.957 10.3633C95.9023 11.2148 96.4062 12.3203 96.4688 13.6797H94.418C94.3555 12.8594 94.043 12.1875 93.4805 11.6641C92.9258 11.1328 92.2383 10.8672 91.418 10.8672C90.3164 10.8672 89.4609 11.2656 88.8516 12.0625C88.25 12.8516 87.9492 13.9961 87.9492 15.4961V15.9062C87.9492 17.3672 88.25 18.4922 88.8516 19.2812C89.4531 20.0703 90.3125 20.4648 91.4297 20.4648Z" fill="#1ABBB6"/>
<path d="M15.9902 45V36.4688H18.3984C19.1406 36.4688 19.7969 36.6328 20.3672 36.9609C20.9375 37.2891 21.377 37.7559 21.6855 38.3613C21.998 38.9668 22.1562 39.6621 22.1602 40.4473V40.9922C22.1602 41.7969 22.0039 42.502 21.6914 43.1074C21.3828 43.7129 20.9395 44.1777 20.3613 44.502C19.7871 44.8262 19.1172 44.9922 18.3516 45H15.9902ZM17.1152 37.3945V44.0801H18.2988C19.166 44.0801 19.8398 43.8105 20.3203 43.2715C20.8047 42.7324 21.0469 41.9648 21.0469 40.9688V40.4707C21.0469 39.502 20.8184 38.75 20.3613 38.2148C19.9082 37.6758 19.2637 37.4023 18.4277 37.3945H17.1152ZM26.3262 45.1172C25.4668 45.1172 24.7676 44.8359 24.2285 44.2734C23.6895 43.707 23.4199 42.9512 23.4199 42.0059V41.8066C23.4199 41.1777 23.5391 40.6172 23.7773 40.125C24.0195 39.6289 24.3555 39.2422 24.7852 38.9648C25.2188 38.6836 25.6875 38.543 26.1914 38.543C27.0156 38.543 27.6562 38.8145 28.1133 39.3574C28.5703 39.9004 28.7988 40.6777 28.7988 41.6895V42.1406H24.5039C24.5195 42.7656 24.7012 43.2715 25.0488 43.6582C25.4004 44.041 25.8457 44.2324 26.3848 44.2324C26.7676 44.2324 27.0918 44.1543 27.3574 43.998C27.623 43.8418 27.8555 43.6348 28.0547 43.377L28.7168 43.8926C28.1855 44.709 27.3887 45.1172 26.3262 45.1172ZM26.1914 39.4336C25.7539 39.4336 25.3867 39.5938 25.0898 39.9141C24.793 40.2305 24.6094 40.6758 24.5391 41.25H27.7148V41.168C27.6836 40.6172 27.5352 40.1914 27.2695 39.8906C27.0039 39.5859 26.6445 39.4336 26.1914 39.4336ZM31.084 38.6602L31.1191 39.457C31.6035 38.8477 32.2363 38.543 33.0176 38.543C34.3574 38.543 35.0332 39.2988 35.0449 40.8105V45H33.9609V40.8047C33.957 40.3477 33.8516 40.0098 33.6445 39.791C33.4414 39.5723 33.123 39.4629 32.6895 39.4629C32.3379 39.4629 32.0293 39.5566 31.7637 39.7441C31.498 39.9316 31.291 40.1777 31.1426 40.4824V45H30.0586V38.6602H31.084ZM38.1504 37.125V38.6602H39.334V39.498H38.1504V43.4297C38.1504 43.6836 38.2031 43.875 38.3086 44.0039C38.4141 44.1289 38.5938 44.1914 38.8477 44.1914C38.9727 44.1914 39.1445 44.168 39.3633 44.1211V45C39.0781 45.0781 38.8008 45.1172 38.5312 45.1172C38.0469 45.1172 37.6816 44.9707 37.4355 44.6777C37.1895 44.3848 37.0664 43.9688 37.0664 43.4297V39.498H35.9121V38.6602H37.0664V37.125H38.1504ZM44.5195 45C44.457 44.875 44.4062 44.6523 44.3672 44.332C43.8633 44.8555 43.2617 45.1172 42.5625 45.1172C41.9375 45.1172 41.4238 44.9414 41.0215 44.5898C40.623 44.2344 40.4238 43.7852 40.4238 43.2422C40.4238 42.582 40.6738 42.0703 41.1738 41.707C41.6777 41.3398 42.3848 41.1562 43.2949 41.1562H44.3496V40.6582C44.3496 40.2793 44.2363 39.9785 44.0098 39.7559C43.7832 39.5293 43.4492 39.416 43.0078 39.416C42.6211 39.416 42.2969 39.5137 42.0352 39.709C41.7734 39.9043 41.6426 40.1406 41.6426 40.418H40.5527C40.5527 40.1016 40.6641 39.7969 40.8867 39.5039C41.1133 39.207 41.418 38.9727 41.8008 38.8008C42.1875 38.6289 42.6113 38.543 43.0723 38.543C43.8027 38.543 44.375 38.7266 44.7891 39.0938C45.2031 39.457 45.418 39.959 45.4336 40.5996V43.5176C45.4336 44.0996 45.5078 44.5625 45.6562 44.9062V45H44.5195ZM42.7207 44.1738C43.0605 44.1738 43.3828 44.0859 43.6875 43.9102C43.9922 43.7344 44.2129 43.5059 44.3496 43.2246V41.9238H43.5C42.1719 41.9238 41.5078 42.3125 41.5078 43.0898C41.5078 43.4297 41.6211 43.6953 41.8477 43.8867C42.0742 44.0781 42.3652 44.1738 42.7207 44.1738ZM48.3105 45H47.2266V36H48.3105V45ZM55.7109 41.1973C54.7461 40.9199 54.043 40.5801 53.6016 40.1777C53.1641 39.7715 52.9453 39.2715 52.9453 38.6777C52.9453 38.0059 53.2129 37.4512 53.748 37.0137C54.2871 36.5723 54.9863 36.3516 55.8457 36.3516C56.4316 36.3516 56.9531 36.4648 57.4102 36.6914C57.8711 36.918 58.2266 37.2305 58.4766 37.6289C58.7305 38.0273 58.8574 38.4629 58.8574 38.9355H57.7266C57.7266 38.4199 57.5625 38.0156 57.2344 37.7227C56.9062 37.4258 56.4434 37.2773 55.8457 37.2773C55.291 37.2773 54.8574 37.4004 54.5449 37.6465C54.2363 37.8887 54.082 38.2266 54.082 38.6602C54.082 39.0078 54.2285 39.3027 54.5215 39.5449C54.8184 39.7832 55.3203 40.002 56.0273 40.2012C56.7383 40.4004 57.293 40.6211 57.6914 40.8633C58.0938 41.1016 58.3906 41.3809 58.582 41.7012C58.7773 42.0215 58.875 42.3984 58.875 42.832C58.875 43.5234 58.6055 44.0781 58.0664 44.4961C57.5273 44.9102 56.8066 45.1172 55.9043 45.1172C55.3184 45.1172 54.7715 45.0059 54.2637 44.7832C53.7559 44.5566 53.3633 44.248 53.0859 43.8574C52.8125 43.4668 52.6758 43.0234 52.6758 42.5273H53.8066C53.8066 43.043 53.9961 43.4512 54.375 43.752C54.7578 44.0488 55.2676 44.1973 55.9043 44.1973C56.498 44.1973 56.9531 44.0762 57.2695 43.834C57.5859 43.5918 57.7441 43.2617 57.7441 42.8438C57.7441 42.4258 57.5977 42.1035 57.3047 41.877C57.0117 41.6465 56.4805 41.4199 55.7109 41.1973ZM61.623 37.125V38.6602H62.8066V39.498H61.623V43.4297C61.623 43.6836 61.6758 43.875 61.7812 44.0039C61.8867 44.1289 62.0664 44.1914 62.3203 44.1914C62.4453 44.1914 62.6172 44.168 62.8359 44.1211V45C62.5508 45.0781 62.2734 45.1172 62.0039 45.1172C61.5195 45.1172 61.1543 44.9707 60.9082 44.6777C60.6621 44.3848 60.5391 43.9688 60.5391 43.4297V39.498H59.3848V38.6602H60.5391V37.125H61.623ZM67.9922 44.373C67.5703 44.8691 66.9512 45.1172 66.1348 45.1172C65.459 45.1172 64.9434 44.9219 64.5879 44.5312C64.2363 44.1367 64.0586 43.5547 64.0547 42.7852V38.6602H65.1387V42.7559C65.1387 43.7168 65.5293 44.1973 66.3105 44.1973C67.1387 44.1973 67.6895 43.8887 67.9629 43.2715V38.6602H69.0469V45H68.0156L67.9922 44.373ZM70.4355 41.7773C70.4355 40.8047 70.666 40.0234 71.127 39.4336C71.5879 38.8398 72.1914 38.543 72.9375 38.543C73.6797 38.543 74.2676 38.7969 74.7012 39.3047V36H75.7852V45H74.7891L74.7363 44.3203C74.3027 44.8516 73.6992 45.1172 72.9258 45.1172C72.1914 45.1172 71.5918 44.8164 71.127 44.2148C70.666 43.6133 70.4355 42.8281 70.4355 41.8594V41.7773ZM71.5195 41.9004C71.5195 42.6191 71.668 43.1816 71.9648 43.5879C72.2617 43.9941 72.6719 44.1973 73.1953 44.1973C73.8828 44.1973 74.3848 43.8887 74.7012 43.2715V40.3594C74.377 39.7617 73.8789 39.4629 73.207 39.4629C72.6758 39.4629 72.2617 39.668 71.9648 40.0781C71.668 40.4883 71.5195 41.0957 71.5195 41.9004ZM78.6504 45H77.5664V38.6602H78.6504V45ZM77.4785 36.9785C77.4785 36.8027 77.5312 36.6543 77.6367 36.5332C77.7461 36.4121 77.9062 36.3516 78.1172 36.3516C78.3281 36.3516 78.4883 36.4121 78.5977 36.5332C78.707 36.6543 78.7617 36.8027 78.7617 36.9785C78.7617 37.1543 78.707 37.3008 78.5977 37.418C78.4883 37.5352 78.3281 37.5938 78.1172 37.5938C77.9062 37.5938 77.7461 37.5352 77.6367 37.418C77.5312 37.3008 77.4785 37.1543 77.4785 36.9785ZM80.1035 41.7715C80.1035 41.1504 80.2246 40.5918 80.4668 40.0957C80.7129 39.5996 81.0527 39.2168 81.4863 38.9473C81.9238 38.6777 82.4219 38.543 82.9805 38.543C83.8438 38.543 84.541 38.8418 85.0723 39.4395C85.6074 40.0371 85.875 40.832 85.875 41.8242V41.9004C85.875 42.5176 85.7559 43.0723 85.5176 43.5645C85.2832 44.0527 84.9453 44.4336 84.5039 44.707C84.0664 44.9805 83.5625 45.1172 82.9922 45.1172C82.1328 45.1172 81.4355 44.8184 80.9004 44.2207C80.3691 43.623 80.1035 42.832 80.1035 41.8477V41.7715ZM81.1934 41.9004C81.1934 42.6035 81.3555 43.168 81.6797 43.5938C82.0078 44.0195 82.4453 44.2324 82.9922 44.2324C83.543 44.2324 83.9805 44.0176 84.3047 43.5879C84.6289 43.1543 84.791 42.5488 84.791 41.7715C84.791 41.0762 84.625 40.5137 84.293 40.084C83.9648 39.6504 83.5273 39.4336 82.9805 39.4336C82.4453 39.4336 82.0137 39.6465 81.6855 40.0723C81.3574 40.498 81.1934 41.1074 81.1934 41.9004Z" fill="#36CB4F"/>
<path d="M0 31H102" stroke="white" stroke-width="2"/>
</svg>
